<svg id="Capa_1" data-name="Capa 1" xmlns="http://www.w3.org/2000/svg" viewBox="0 0 590.62 430.35"><defs><style>.cls-1,.cls-11,.cls-2{fill:#fff;}.cls-1,.cls-2,.cls-9{stroke:#1d1d1b;stroke-miterlimit:10;}.cls-1,.cls-9{stroke-width:0.35px;}.cls-2{stroke-width:0.5px;}.cls-3{font-size:36px;font-family:SavoyeLetPlain, Savoye LET;}.cls-10,.cls-12,.cls-3,.cls-4{fill:#1d1d1b;}.cls-12,.cls-4{font-size:12px;}.cls-4{font-family:Baskerville;}.cls-5,.cls-6,.cls-7,.cls-8{font-family:HelveticaNeue-Light, Helvetica Neue;}.cls-12,.cls-5,.cls-6,.cls-7,.cls-8{font-weight:300;}.cls-6{letter-spacing:-0.02em;}.cls-7{letter-spacing:0em;}.cls-8{letter-spacing:-0.02em;}.cls-14,.cls-9{fill:none;}.cls-12{font-family:Noteworthy-Light, Noteworthy;}.cls-13{letter-spacing:0.01em;}</style></defs><title>modularization</title><rect class="cls-1" x="490.56" y="361.05" width="5.67" height="5.67" rx="2.83"/><rect class="cls-1" x="511.54" y="361.05" width="5.67" height="5.67" rx="2.83"/><rect class="cls-1" x="501.05" y="361.05" width="5.67" height="5.67" rx="2.83"/><rect class="cls-2" x="0.25" y="316.71" width="170.08" height="113.39" rx="5.67"/><rect class="cls-1" x="82.45" y="361.05" width="5.67" height="5.67" rx="2.83"/><line class="cls-1" x1="93.79" y1="363.89" x2="164.66" y2="363.89"/><line class="cls-1" x1="76.79" y1="363.89" x2="5.92" y2="363.89"/><text class="cls-3" transform="translate(42.5 347.14)">Feature 1</text><text class="cls-4" transform="translate(5.92 383.67)">•<tspan class="cls-5" x="4.25" y="0" xml:space="preserve"> State</tspan><tspan x="0" y="18">•</tspan><tspan class="cls-5" x="4.25" y="18" xml:space="preserve"> Actions</tspan><tspan x="0" y="36">•</tspan><tspan class="cls-5" x="4.25" y="36" xml:space="preserve"> Reducer</tspan></text><rect class="cls-2" x="209.55" y="316.71" width="170.08" height="113.39" rx="5.67"/><rect class="cls-1" x="291.75" y="361.05" width="5.67" height="5.67" rx="2.83"/><line class="cls-1" x1="303.09" y1="363.89" x2="373.96" y2="363.89"/><line class="cls-1" x1="286.08" y1="363.89" x2="215.22" y2="363.89"/><text class="cls-3" transform="translate(249.95 347.14)">Feature 2</text><text class="cls-4" transform="translate(215.22 383.67)">•<tspan class="cls-5" x="4.25" y="0" xml:space="preserve"> State</tspan><tspan x="0" y="18">•</tspan><tspan class="cls-5" x="4.25" y="18" xml:space="preserve"> Actions</tspan><tspan x="0" y="36">•</tspan><tspan class="cls-5" x="4.25" y="36" xml:space="preserve"> Reducer</tspan></text><rect class="cls-2" x="209.55" y="0.25" width="170.08" height="113.39" rx="5.67"/><rect class="cls-1" x="291.75" y="44.59" width="5.67" height="5.67" rx="2.83"/><line class="cls-1" x1="303.09" y1="47.43" x2="373.96" y2="47.43"/><line class="cls-1" x1="286.08" y1="47.43" x2="215.22" y2="47.43"/><text class="cls-3" transform="translate(272.21 30.67)">App</text><text class="cls-4" transform="translate(215.22 67.21)">•<tspan class="cls-5" x="4.25" y="0" xml:space="preserve"> Setup</tspan><tspan x="0" y="18">•</tspan><tspan class="cls-5" x="4.25" y="18" xml:space="preserve"> Kick O</tspan><tspan class="cls-6" x="42.04" y="18">f</tspan><tspan class="cls-7" x="44.93" y="18">f</tspan></text><rect class="cls-2" x="209.55" y="158.48" width="170.08" height="113.39" rx="5.67"/><rect class="cls-1" x="291.75" y="202.82" width="5.67" height="5.67" rx="2.83"/><line class="cls-1" x1="303.09" y1="205.66" x2="373.96" y2="205.66"/><line class="cls-1" x1="286.08" y1="205.66" x2="215.22" y2="205.66"/><text class="cls-3" transform="translate(256.71 188.91)">Caesura</text><text class="cls-4" transform="translate(215.22 225.44)">•<tspan class="cls-5" x="4.25" y="0" xml:space="preserve"> Sto</tspan><tspan class="cls-8" x="25.37" y="0">r</tspan><tspan class="cls-7" x="28.93" y="0">e</tspan><tspan x="0" y="18">•</tspan><tspan class="cls-5" x="4.25" y="18" xml:space="preserve"> State</tspan><tspan x="0" y="36">•</tspan><tspan class="cls-5" x="4.25" y="36" xml:space="preserve"> Reducer</tspan></text><text class="cls-4" transform="translate(303.09 383.67)">•<tspan class="cls-5" x="4.25" y="0" xml:space="preserve"> Navigation</tspan><tspan x="0" y="18">•</tspan><tspan class="cls-5" x="4.25" y="18" xml:space="preserve"> Networking</tspan></text><text class="cls-4" transform="translate(93.79 383.67)">•<tspan class="cls-5" x="4.25" y="0" xml:space="preserve"> Navigation</tspan><tspan x="0" y="18">•</tspan><tspan class="cls-5" x="4.25" y="18" xml:space="preserve"> Networking</tspan></text><polyline class="cls-9" points="209.55 205.66 85.29 205.66 85.29 310.37"/><path class="cls-10" d="M87.83,476.06a31.7,31.7,0,0,0-5-9l5,1.81,5-1.81A31.43,31.43,0,0,0,87.83,476.06Z" transform="translate(-2.54 -159.34)"/><polyline class="cls-9" points="379.63 205.66 503.89 205.66 503.89 310.37"/><path class="cls-10" d="M506.42,476.06a31.43,31.43,0,0,0-5-9l5,1.81,5-1.81A31.7,31.7,0,0,0,506.42,476.06Z" transform="translate(-2.54 -159.34)"/><line class="cls-11" x1="294.59" y1="113.64" x2="294.59" y2="158.48"/><line class="cls-9" x1="294.59" y1="113.64" x2="294.59" y2="152.14"/><path class="cls-10" d="M297.12,317.83a31.43,31.43,0,0,0-5-9l5,1.81,5-1.81A31.7,31.7,0,0,0,297.12,317.83Z" transform="translate(-2.54 -159.34)"/><line class="cls-11" x1="294.59" y1="271.87" x2="294.59" y2="316.71"/><line class="cls-9" x1="294.59" y1="271.87" x2="294.59" y2="310.37"/><path class="cls-10" d="M297.12,476.06a31.43,31.43,0,0,0-5-9l5,1.81,5-1.81A31.7,31.7,0,0,0,297.12,476.06Z" transform="translate(-2.54 -159.34)"/><rect class="cls-1" x="330.42" y="224.59" width="28.35" height="28.35" rx="5.67"/><text class="cls-12" transform="translate(335.69 243.19)"><tspan class="cls-13">A</tspan><tspan x="7.71" y="0">PI</tspan></text><line class="cls-14" x1="590.62" y1="316.71" x2="590.62" y2="405.12"/><path class="cls-9" d="M427.28,199.24" transform="translate(-2.54 -159.34)"/></svg>